<?xml version="1.0" encoding="UTF-8"?>
<svg id="Existing" xmlns="http://www.w3.org/2000/svg" viewBox="0 0 480 640">
  <defs>
    <style>
      .cls-1 {
        fill: #5f221e;
      }

      .cls-2 {
        fill: #eebf49;
      }

      .cls-3 {
        fill: #5f2320;
      }

      .cls-4 {
        fill: #d28a50;
      }

      .cls-5 {
        fill: #60231f;
      }

      .cls-6 {
        fill: #a6714a;
      }

      .cls-7 {
        fill: #d68c51;
      }

      .cls-8 {
        fill: #fcfcfb;
      }

      .cls-9 {
        fill: #8c4033;
      }

      .cls-10 {
        fill: #fafc8f;
      }

      .cls-11 {
        fill: #60231e;
      }
    </style>
  </defs>
  <g id="Busted_Crown" data-name="Busted Crown">
    <g id="Busted_Crown-2" data-name="Busted Crown">
      <polygon class="cls-2" points="177.94 122.68 159.15 106.85 152.93 132.29 128.82 119.57 148.82 176.86 176.15 179.62 205.26 174.78 228.15 165.96 246.12 153.85 247.6 149.85 247.6 93.62 234.26 112.96 221.89 93.62 210.15 113.07 190.05 92.18 177.94 122.68"/>
      <g>
        <polygon class="cls-6" points="152.93 132.29 170.04 141.18 176.93 122.96 158.98 107.55 152.93 132.29"/>
        <polygon class="cls-6" points="221.89 95.4 210.85 112.8 223.52 128.46 233.15 114.07 221.89 95.4"/>
      </g>
      <path class="cls-7" d="M170.2,142.95l10.83,33.54c-5.54,3.49-22.27,3.56-26.85.92l-18.06-53.39,34.08,18.94Z"/>
      <path class="cls-10" d="M224.07,128.35l4.86-5.95,2.12,41.6c-3.56,1.42-22.63,9.02-26.29,10.06l-14.53-80.5,33.84,34.79Z"/>
      <path class="cls-8" d="M221.89,126.74l2.9,39.8c-3.05,1.58-6.16,2.54-9.32,3.8l-6.05-56.92,12.47,13.33Z"/>
      <polygon class="cls-9" points="174.91 128.31 169.82 141.87 158.31 135.16 161.67 116 174.91 128.31"/>
      <path class="cls-9" d="M231.05,117.07l-7.34,11.87-10.34-12.32,8.38-13.75s9,14.08,9.3,14.2Z"/>
      <polygon class="cls-4" points="246.65 149.68 243.96 153.24 243.35 101.1 247.01 97.35 246.65 149.68"/>
      <g>
        <path class="cls-3" d="M223.8,147.67l-2.53,5.36c-.84,1.79-1.66,3.29-2.53,5.23l.5-5.75c.21-2.42,1.51-10.25,1.51-10.25.14-.98.17-3.94.04-4.93-.32-2.6.09-7.04.29-9.61.56.62,5.48.02,6.79-1.46-.34,1.11-1.3,4.18-1.85,5.31l-1.49,4.21.54,5.75c.07.75.38,1.34.76,2.05l-2.03,4.08Z"/>
        <path class="cls-5" d="M146.34,154.5c2.07.74,4.24,1.14,6.45,1.75l3.78.64c2.15,2.04,4,4.36,6.15,6.42l4.84,4.64c-1.05.09-1.65-.78-2.45-1.2-2.11-1.1-4.13-2.12-6.09-3.53-1.51-.79-2.93-1.62-4.37-2.6-2.1-.31-4.14-.05-6.14-.2l-4.21-.31-2.17-6.93c.95.07,3.35,1,4.21,1.31Z"/>
        <path class="cls-11" d="M173.37,139.38l3.06-10.22,5.61-3.31,1.78-1.62c.52-.47,1.22-1.14,1.66-1.73.79-2.09-2.77-9.76-2.77-9.76l3.54-8.17c-.07,3.3.26,9.24,1.16,12.44l.92,4.55c.16.8.26,1.53-.28,2.17-1.23,1.44-2.69,2.53-3.95,3.93l-3.11,3.48c-1.38,1.54-2.78,2.91-4.07,4.55-.48.6-3.18,3.58-3.55,3.69Z"/>
        <path class="cls-11" d="M247.01,137.49l-3.3,2.66c-1.7,1.91-3.46,3.78-4.97,6.02-.89,1.33-1.53,2.72-2.74,3.99.19-1.11.56-2.1,1.01-3.11l4.24-9.4,2.75-5.66,2.31-4.8.68,10.29Z"/>
        <path class="cls-1" d="M170.94,142.76c.19.5,1.67,2.29,2.09,2.71l5.92,5.88c1.79,1.78,3.88,2.91,5.92,4.18.79,1.37,1.06,2.89,1.48,4.43.84,3.05,1.89,5.93,3.17,8.77.82,1.81,2.09,3.13,3.35,4.51l2.11,2.34c-2.69.49-5.98,1.27-8.69,1.53-.04-1.2.13-3.8-.35-4.95l-4.57-11.19c-.53-1.29-1.06-2.7-1.96-3.63-2.21-2.29-4.33-4.49-6.65-6.4-2.26-2.95-5.23-5.05-7.29-8,.3.22,4.12.67,5.45-.17Z"/>
      </g>
      <path d="M250.15,145.85l.02-5.3.31-45.92c0-1.38.02-2.43-.62-3.61-.63-1.16-2.45-1.54-3.32-.23l-12.69,18.98-10.47-17.12c-.41-.66-1.29-.93-1.87-.87-.67.07-1.35.47-1.81,1.23l-10.22,16.87-17.75-19.49c-.69-.76-1.3-1.19-2.2-1-.99.21-1.38.88-1.8,1.99l-10.95,28.61-16.48-15.52c-.72-.68-1.64-.92-2.51-.44-.57.32-1.27,1.18-1.46,2.21l-4.29,23.33-21.16-11.94c-.92-.52-2.11-.71-2.76.24-.69,1.01-.42,2.32-.01,3.54l18.42,55.09c.88,2.62,5.01,4.08,7.79,4.5l1.48.22,4.86.33,6.34.31,3.58.09,3.15-.13c10.59-.42,21.11-1.62,31.48-4.52,14.78-4.13,28.65-11.21,41.09-21.18,2.94-2.36,3.83-6.35,3.85-10.28ZM221.64,98.48l9.41,15.47-1.19,1.83-6.31,9.52-9.39-10.35c-.56-.51-1.14-.99-1.43-1.77l8.9-14.69ZM156.76,128.25l3.19-17.63,14.96,14.1-.99,2.67-4.61,12-10.68-6.07-2.41-1.35.53-3.72ZM243.9,151.59l-1.09,1.22c-4.08,3.28-8.36,6.11-12.73,8.68-1.79,1.05-3.61,2.04-5.44,2.99-3.05,1.58-6.18,2.99-9.34,4.24-3.56,1.42-7.18,2.64-10.85,3.68-3.36.95-6.76,1.75-10.19,2.38-2.69.49-5.39.95-8.1,1.21l-5.15.5c-5.97.58-23.06.66-27.5-.98-1.02-.37-2.52-.79-3.27-1.91l-4.53-13.37-2.09-6.28-9.66-28.82c1.32.22,2.11,1,3.01,1.51l17.02,9.68,6.68,3.86c1.64.95,3.31,1.67,4.79,2.76.3.22.9.24,1.25.55,1.16,1.03,4.12,1.3,5.45.46l.54-1.03,1.8-4.61,3.91-10.29,5.19-13.58,2.86-7.39,4.23-10.81,19.11,20.93,11.24,12.35c.56.62,1.19.88,2.02,1.17,2.21.76,2.86-1,4.17-2.48.33-1.07,1.12-1.95,1.71-2.85l14.99-22.58,2.16-3.18-.23,28.49-.05,9.65-.14,10.3c-.02,1.39-1.08,2.73-1.8,3.53Z"/>
    </g>
  </g>
</svg>