<?xml version="1.0" encoding="UTF-8"?>
<svg id="Existing" xmlns="http://www.w3.org/2000/svg" viewBox="0 0 480 640">
  <defs>
    <style>
      .cls-1 {
        fill: #442f42;
      }

      .cls-2 {
        fill: #635264;
      }

      .cls-3 {
        fill: #7c707c;
      }

      .cls-4 {
        fill: #ffd7d7;
      }

      .cls-5 {
        fill: #fa001c;
      }
    </style>
  </defs>
  <g id="Tempest_Helmet" data-name="Tempest Helmet">
    <g id="Tempest_Helmet-2" data-name="Tempest Helmet">
      <g id="Helmet">
        <path class="cls-2" d="M289.01,189.31c-7.57-45.99-47.17-62.21-47.17-62.21,0,0-95.78-27.49-120.09,40.22,0,0-11.86,33.86,0,71.47l11.57,27.49-6.08,13.31s21.89,25.21,37.91,28.65c0,0,11.29-6.37,20.83-31.83l-18.52-34.43,7.81-13.31s34.87-11.14,53.1,14.9c0,0,23-16.49,32.55-14.76l9.11,12.59s-3.18,2.46-19.82,35.01c5.46,11.57,11.22,25.38,15.48,27.78l22.14-13.6-4.63-16.49s13.6-37.33,5.79-84.78Z"/>
        <path class="cls-3" d="M261.52,144.32c0-2.12-.75-4.17-2.12-6.1-5.78-4.75-11.01-7.83-14.23-9.51-8.71-3.33-20.22-5.36-32.84-5.36-27.17,0-49.19,9.39-49.19,20.98s22.02,20.98,49.19,20.98,49.19-9.39,49.19-20.98Z"/>
        <path d="M165.17,310.74c-.17,0-.35-.02-.52-.06-16.64-3.57-38.35-28.4-39.27-29.45-.64-.74-.79-1.79-.39-2.68l5.62-12.31-11.15-26.48c-.03-.07-.06-.14-.08-.22-11.98-37.97-.47-71.64.02-73.05,10.31-28.72,34.99-45.02,71.37-47.17,27.1-1.6,50.77,5.09,51.76,5.37.09.02.17.05.26.09.41.17,40.97,17.3,48.69,64.12h0c7.31,44.39-3.68,79.52-5.63,85.27l4.42,15.74c.3,1.06-.13,2.19-1.06,2.78l-21.27,13.6c-.63.4-1.41.5-2.12.27-5.36-1.74-9.31-10.48-13.88-20.61-1.29-2.86-2.62-5.81-3.93-8.43-.4-.81-.34-1.77.17-2.52,15.76-23.21,18.72-30.95,19.27-32.96l-8.31-11.47c-5.9-4.12-22.03,8.12-29.02,14.8-.53.5-1.25.75-1.97.68-.73-.07-1.38-.46-1.8-1.05-7.06-10.09-17.59-15.52-31.29-16.15-8.49-.39-15.67,1.28-18.11,1.94l-6.59,11.24,17.85,33.2c.34.64.39,1.39.14,2.06-9.76,26.02-21.45,32.85-21.95,33.13-.38.21-.8.32-1.23.32ZM130.21,279.14c4.4,4.83,21.48,22.89,34.46,26.41,2.52-1.89,11.04-9.37,18.58-28.96l-17.98-33.43c-.41-.77-.4-1.7.05-2.45l7.81-13.31c.31-.53.81-.93,1.4-1.12.35-.11,34.75-10.74,54.2,13.57,6.41-5.72,24.57-20.47,33.79-12.99.17.14.32.3.45.47l9.11,12.59c.19.27.33.57.41.9.8,3.42-6.07,16.1-19.37,35.78,1.14,2.34,2.27,4.85,3.37,7.29,3.08,6.82,6.84,15.15,9.95,17.42l18.51-11.84-4.13-14.71c-.14-.5-.12-1.04.06-1.53.13-.37,13.28-37.32,5.67-83.52-7.04-42.77-43.16-59.22-45.53-60.26-2.01-.55-24.87-6.65-50.07-5.14-34.65,2.08-57.13,16.83-66.83,43.84-.11.31-11.4,33.48,0,69.77l11.53,27.38c.27.64.26,1.37-.03,2.01l-5.4,11.82Z"/>
      </g>
      <g id="Top_Part" data-name="Top Part">
        <g>
          <path class="cls-2" d="M237.29,149.81s-56.21-24.45-96.72-1.3c-40.51,23.15-18.81,90.28-18.81,90.28-15.97-19.75-16.99-50.79-16.34-66.31.26-6.26,4.7-20.32,7.37-25.99,10.47-22.2,23.44-30.09,23.44-30.09,36.46-34.72,116.9-18.23,116.9-18.23,0,0-12.37,29.59-15.84,51.65Z"/>
          <path d="M121.76,241.29c-.74,0-1.46-.32-1.94-.93-16.31-20.18-17.59-51.26-16.9-67.99.27-6.54,4.8-20.99,7.61-26.95,10-21.22,22.22-29.75,24.16-31.01,15.61-14.74,40.38-22.36,73.65-22.65,24.66-.2,45.1,3.92,45.3,3.96.73.15,1.36.62,1.71,1.28.35.66.38,1.44.1,2.13-.12.29-12.29,29.57-15.68,51.08-.12.76-.59,1.43-1.27,1.8-.68.37-1.49.41-2.2.1-.55-.24-55.55-23.67-94.48-1.42-38.27,21.87-17.88,86.69-17.67,87.34.37,1.15-.13,2.39-1.19,2.97-.38.2-.78.3-1.19.3ZM210.29,96.81c-24.63,0-54.27,4.19-72.33,21.4-.13.12-.27.23-.42.33-.12.07-12.51,7.88-22.48,29.02-2.58,5.48-6.9,19.15-7.14,25.03-.52,12.54.09,33.45,7.69,51.01-1.07-6.05-1.99-13.39-2.13-21.21-.49-26.71,8.45-46.09,25.85-56.04,17.07-9.76,39.62-12.63,65.21-8.32,14.29,2.41,25.68,6.36,30.81,8.32,3.31-17.75,11.28-38.69,14.31-46.26-6.21-1.05-21.46-3.27-39.37-3.27Z"/>
        </g>
        <path class="cls-3" d="M253.13,98.16s-80.44-16.49-116.9,18.23c0,0-12.97,7.89-23.44,30.09-2.67,5.67-7.12,19.73-7.37,25.99-.56,13.56.15,38.97,10.99,58.35l.44-.28c-25.61-147.14,97.8-113.86,97.8-113.86l7.23,27.84c9.45,2.7,15.42,5.29,15.42,5.29,3.47-22.06,15.84-51.65,15.84-51.65Z"/>
        <path d="M121.76,241.29c-.74,0-1.46-.32-1.94-.93-16.31-20.18-17.59-51.26-16.9-67.99.27-6.54,4.8-20.99,7.61-26.95,10-21.22,22.22-29.75,24.16-31.01,15.61-14.74,40.38-22.36,73.65-22.65,24.66-.2,45.1,3.92,45.3,3.96.73.15,1.36.62,1.71,1.28.35.66.38,1.44.1,2.13-.12.29-12.29,29.57-15.68,51.08-.12.76-.59,1.43-1.27,1.8-.68.37-1.49.41-2.2.1-.55-.24-55.55-23.67-94.48-1.42-38.27,21.87-17.88,86.69-17.67,87.34.37,1.15-.13,2.39-1.19,2.97-.38.2-.78.3-1.19.3ZM210.29,96.81c-24.63,0-54.27,4.19-72.33,21.4-.13.12-.27.23-.42.33-.12.07-12.51,7.88-22.48,29.02-2.58,5.48-6.9,19.15-7.14,25.03-.52,12.54.09,33.45,7.69,51.01-1.07-6.05-1.99-13.39-2.13-21.21-.49-26.71,8.45-46.09,25.85-56.04,17.07-9.76,39.62-12.63,65.21-8.32,14.29,2.41,25.68,6.36,30.81,8.32,3.31-17.75,11.28-38.69,14.31-46.26-6.21-1.05-21.46-3.27-39.37-3.27Z"/>
      </g>
      <g id="Visor">
        <g>
          <path class="cls-2" d="M296.83,193.94c1.44,14.18,2.75,36.37-.87,50.35,0,0-15.05-19.1-29.23-20.54-20.25-2.07-31.65,9.78-38.49,14.18,0,0-19.97-21.7-42.83-19.68-22.86,2.03-50.06,21.41-50.06,21.41l-.87-47.74s49.19-18.52,96.07-49.77c0,0,47.46,44.27,66.26,51.8Z"/>
          <path d="M295.96,246.79c-.76,0-1.48-.34-1.96-.95-.14-.18-14.57-18.28-27.52-19.6-15.92-1.62-26.17,5.97-32.94,11-1.4,1.04-2.73,2.02-3.94,2.8-1.02.65-2.37.48-3.19-.41-.19-.21-19.43-20.77-40.77-18.88-21.91,1.94-48.56,20.77-48.83,20.96-.76.54-1.75.61-2.58.2-.83-.42-1.36-1.26-1.37-2.19l-.87-47.74c-.02-1.06.63-2.01,1.62-2.39.49-.18,49.48-18.79,95.56-49.51.96-.64,2.24-.54,3.09.25.47.44,47.33,44.04,65.49,51.3.86.35,1.46,1.14,1.56,2.07,1.3,12.76,2.9,36.39-.94,51.23-.24.92-.98,1.62-1.91,1.82-.17.04-.34.05-.51.05ZM262.03,221c1.59,0,3.24.08,4.96.26,11.02,1.12,22.13,11.67,27.55,17.57,2.21-13.47,1.04-31.89-.06-43.17-18.04-8.23-56.13-42.92-64.18-50.34-41.29,27.23-84.4,44.8-93.28,48.3l.75,41.41c8.43-5.46,29.05-17.64,47.42-19.27,20.38-1.8,38.14,13.81,43.36,18.92.62-.45,1.28-.94,1.99-1.46,6.69-4.96,16.47-12.21,31.47-12.21Z"/>
        </g>
        <path class="cls-1" d="M219.85,148.8l-13.89,8.97s-11.57,30.67,20.54,79.29c0,0,7.52-1.45,4.05-94.91l-10.71,6.66Z"/>
        <path class="cls-3" d="M230.56,142.15s26.62,9.84-4.05,94.91l-6.66-88.26,10.71-6.66Z"/>
        <g>
          <path d="M231.43,237.82c-.56,0-1.11-.18-1.58-.56-1.07-.87-1.23-2.45-.36-3.52.18-.21,17.56-21.69,20.31-38.18.23-1.36,1.52-2.28,2.88-2.05,1.36.23,2.28,1.51,2.05,2.88-2.97,17.81-20.61,39.6-21.36,40.52-.49.61-1.21.92-1.94.92Z"/>
          <path d="M227.67,236.95c-.82,0-1.63-.4-2.1-1.15-.67-1.04-16.41-25.56-22.22-40.68-.5-1.29.15-2.74,1.44-3.23,1.29-.49,2.74.15,3.23,1.44,5.63,14.63,21.6,39.52,21.76,39.77.75,1.16.41,2.71-.75,3.46-.42.27-.89.4-1.35.4Z"/>
          <path d="M203.36,179.08c-1.35,0-2.46-1.08-2.5-2.43-.31-11.7,7.65-23.03,7.98-23.51.8-1.13,2.36-1.39,3.49-.59,1.12.8,1.39,2.36.59,3.48h0c-.07.1-7.33,10.47-7.06,20.48.04,1.38-1.05,2.53-2.43,2.56-.02,0-.04,0-.07,0Z"/>
          <path d="M255.16,181.11c-.06,0-.12,0-.19,0-1.38-.1-2.41-1.3-2.31-2.68.77-10.59-7.35-19.43-7.43-19.52-.94-1.01-.89-2.59.12-3.53,1.01-.94,2.58-.89,3.53.11.4.42,9.71,10.5,8.77,23.31-.1,1.31-1.19,2.32-2.49,2.32Z"/>
          <path d="M295.96,246.79c-.76,0-1.48-.34-1.96-.95-.14-.18-14.57-18.28-27.52-19.6-15.62-1.6-25.44,6.22-31.94,11.38-1.33,1.06-2.47,1.97-3.56,2.72-1.01.7-2.37.57-3.23-.32-.21-.21-20.73-21.18-42.11-19.28-21.91,1.94-48.56,20.77-48.83,20.96-.76.54-1.75.61-2.58.2-.83-.42-1.36-1.26-1.37-2.19l-.87-47.74c-.02-1.06.63-2.01,1.62-2.39.49-.18,49.48-18.79,95.56-49.51.96-.64,2.24-.54,3.09.25.47.44,47.33,44.04,65.49,51.3.86.35,1.46,1.14,1.56,2.07,1.3,12.76,2.9,36.39-.94,51.23-.24.92-.98,1.62-1.91,1.82-.17.04-.34.05-.51.05ZM262.41,221.02c1.48,0,3,.08,4.58.24,11.02,1.12,22.13,11.67,27.55,17.57,2.21-13.47,1.04-31.89-.06-43.17-18.04-8.23-56.13-42.92-64.18-50.34-41.29,27.23-84.4,44.8-93.28,48.3l.75,41.41c8.43-5.46,29.05-17.64,47.42-19.27,20.4-1.8,39.1,14.1,44.57,19.25.52-.4,1.07-.84,1.65-1.31,6.1-4.85,15.94-12.68,30.98-12.68Z"/>
        </g>
      </g>
      <g id="Lightning">
        <g id="Red">
          <path class="cls-5" d="M262.83,282.54l12.44,15.84-8.68,5.81c-5.8-1.31-11.82-18.21-16.35-27.78,19.1-30.09,19.82-35.01,19.82-35.01l-9.11-12.59c-9.55-1.74-32.55,14.76-32.55,14.76-18.23-26.04-53.1-14.9-53.1-14.9l-7.81,13.31,18.52,34.43c-9.55,25.46-20.83,31.83-20.83,31.83-4.76-1.02-10.04-3.97-15.12-7.61l19.12-25.81c-4.87-.54-15.92-.61-30.38,2.63-.97.22-1.99-.11-2.63-.85l-18.54-21.4-35.39,14.59c-.86.35-1.85.24-2.61-.29-.75-.54-1.16-1.42-1.06-2.31l2.66-24.87-29.39,3.64c-.96.12-1.91-.28-2.48-1.04-.57-.76-.66-1.76-.24-2.6l11.81-23.63,1.7-16.37c.16-1.32,1.35-4.36,2.71-4.32,1.37.04,2.49,3.15,2.56,4.48l.77,15.09c7.92-2.42,14.07-6.93,18.73-13.74.75-1.1,3.29-2.98,4.49-2.35,1.2.62.68,3.54.15,4.75l-6.3,14.47c-.45,1.04-1.56,1.67-2.72,1.55-.12-.01-12.25-1.15-18.79,5.83l-3.41,6.87c7.23-2.74,19.18-6.52,29.46-6.21,1.4.04,2.53,1.13,2.56,2.49l.5,20.44,27.26-12c.46-.2.96-.27,1.45-.21.23.03.46.09.67.17,0,0,0,0,0,0,.22.09.42.2.61.34l19.98,15.14,15.56-3.75-6.7-10.03c-.56-.84-.56-1.93,0-2.77l11.1-16.49c.41-.61,1.07-1.02,1.82-1.13,1.02-.15,16.77-3.94,31.08-2.33-14.99-10.01-28.63-13.97-32.18-15.06l-49.33,14.53c-1.35.4-4.04.28-4.52-.99-.48-1.28,1.64-2.94,2.72-3.8,1.24-.98,2.51-2.27,3.77-3.78,2.26-2.7,4.51-6.13,6.64-9.94,0-.02.02-.03.03-.05.7-1.26,1.39-2.56,2.06-3.88,0-.01.01-.02.02-.03.32-.64.64-1.29.96-1.95.03-.06.06-.12.09-.18.62-1.3,1.23-2.61,1.81-3.93.03-.07.06-.14.09-.2.28-.63.55-1.27.82-1.9.04-.1.08-.2.12-.3.27-.64.53-1.29.79-1.93,0,0,0-.01,0-.02.25-.63.49-1.25.73-1.88.04-.11.09-.22.13-.33.23-.61.45-1.21.67-1.81.04-.12.08-.23.12-.34.22-.62.44-1.24.65-1.85-.49.09-.99.18-1.5.28-.16.03-.33.07-.5.1-.35.07-.7.14-1.06.21-.2.04-.4.08-.61.13-.34.07-.68.14-1.02.22-.21.05-.43.09-.64.14-.34.08-.69.15-1.04.23-.21.05-.43.1-.64.15-.37.08-.74.17-1.12.26-.2.05-.39.09-.59.14-.42.1-.85.2-1.28.31-.15.04-.3.07-.45.11-1.2.29-2.42.6-3.64.91-12.68,3.25-25.67,7.34-25.88,7.44-1.19.58-2.64.22-3.39-.85-.75-1.07-.55-2.5.45-3.35.93-.79,15.06-10.89,31.4-15.04,0,0,0,0,0,0,1.47-.37,2.95-.69,4.44-.96.15-.03.3-.05.45-.08.74-.12,1.48-.23,2.22-.33.24-.03.48-.06.72-.09.37-.04.74-.08,1.11-.11.34-.03.68-.06,1.02-.08.43-.03.85-.05,1.28-.07.47-.02.95-.03,1.42-.04.27,0,.55,0,.82,0,.51,0,1.02.02,1.53.04.18,0,.37.01.55.03.62.04,1.24.1,1.86.17.21.02.41.05.62.08.62.08,1.25.17,1.86.29.05,0,.11.02.16.03.67.13,1.33.28,1.99.45.17.04.34.09.51.13.67.18,1.33.38,1.99.61,1.37.48,2.08,1.93,1.59,3.26-.31.84-5.62,15.04-12.96,25.72,12.82-5.84,30.66-13.59,35.56-13.79.6-.02,1.19.15,1.67.49,1.62,1.14,39.23,29.42,57,51.83,12.73-10.42,34.96-34.14,43.69-34.14.73,0,1.67.06,2.17.58l9.31,8.18c.2-.14.42-.29.65-.45.05-.04.11-.08.16-.11.19-.13.38-.26.58-.4.06-.04.13-.09.2-.13.2-.14.41-.28.63-.43.06-.04.13-.09.2-.13.24-.16.48-.32.73-.49.06-.04.11-.08.17-.11.26-.18.53-.35.81-.54.06-.04.12-.08.18-.12.29-.19.58-.38.88-.58.05-.04.11-.07.16-.11.33-.21.66-.43,1-.65.03-.02.07-.04.1-.06.38-.24.77-.49,1.17-.74,0,0,0,0,0,0,8.58-5.41,21.18-12.46,30.35-13.75.77-.11,1.54.11,2.13.61.58.49.91,1.21.9,1.95l-.23,15.2c5.66-2.44,17.03-6.43,33.08-7.65,1.43-.11,2.69.9,2.84,2.27.15,1.37-1.66,1.68-3.08,1.86l-8.55,2.12c-4.84,1.25-20.03,8.12-28.95,13.24-.76.44-1.7.48-2.5.11-.8-.37-1.35-1.1-1.47-1.94l-1.81-12.46-22.38,14.52-8.01,5.2c-1.16.75-2.72.5-3.57-.56l-11.21-14.08-10.05,8.22,5.43-2.11c1.12-.41,2.39-.03,3.08.92l14.31,18.78c.07.09.13.19.18.29,1.82,3.35,2.76,6.83-2.57,11.67-1.11,1.01-4.28,3.15-5.96,5.1l23.74-10.7c.88-.37,1.9-.24,2.66.33l15.93,15.47,4.28-30.33c.22-.82.84-1.48,1.67-1.77.83-.29,1.75-.16,2.45.34l16.65,13.46,4.61-16.4c.61-1.01,1.76-4.1,2.92-3.78,1.16.32,2.04,3.97,2.01,5.13l-.9,32.41c-.03,1.03-.7,1.94-1.69,2.31-.99.37-2.12.13-2.86-.62l-15.16-15.28.51,36.34c.01.96-.53,1.84-1.41,2.29-.88.45-1.94.38-2.75-.17l-29.01-19.67s-21.42-1.81-33.83,16.19Z"/>
        </g>
        <g id="White_R" data-name="White R">
          <path class="cls-4" d="M261.08,280.11c7.09-11.2,20.42-18.16,34.79-18.16.46,0,.91,0,1.37.02h0c.07,0,.18,0,.23,0,.39.02.77.14,1.1.36h0s.11.07.11.07c.1.07.19.14.28.21.48.29,1.2.77,2.35,1.53l5.53,3.65,8.05,5.31c1.13.75,3.85,2.55,6.49,4.28,2.07,1.36,4.09,2.69,5.22,3.44-.08-3.26-.18-7.05-.28-11-.21-8.02-.44-17.11-.59-23.48l-.12-4.69c-.02-.87.49-1.66,1.28-2,.27-.12.56-.17.84-.17.55,0,1.09.21,1.49.61l3.37,3.33,12.59,12.44s.02.02.03.03c.06-3.16.14-7.72.22-11.9-.48,1.75-.85,3.13-1.03,3.78-.19.69-.71,1.23-1.39,1.45-.22.07-.44.11-.66.11-.47,0-.94-.16-1.32-.46-3.46-2.73-8.07-6.4-12.53-9.95-1.4-1.11-2.76-2.2-4.04-3.22-.54,4.08-1.36,10.04-2.15,15.85-1.01,7.38-1.96,14.36-2.16,16.04-.09.8-.64,1.48-1.4,1.75-.23.08-.47.12-.71.12-.54,0-1.08-.21-1.48-.6-1.4-1.36-6.26-6.01-10.96-10.5-3.05-2.92-6.03-5.77-7.94-7.6l-2.3,1.05c-5.49,2.54-12.6,5.78-19.48,8.91-5.4,2.46-8.44,5.39-12.69,7.35-.28.13-.59.19-.89.19,0,0-5.47.79-5.43,8.89l4.19,2.97Z"/>
          <path class="cls-4" d="M286.86,220.29c1.77-1.17,9.41-7.26,16.62-11.95,3.13-2.04,9.69-6.26,12.08-7.81-5.86,2.62-15.65,7.71-21.07,11.06-2.91,1.83-6.18,4.01-9.73,6.48-.37.26-.79.38-1.21.38-.52,0-1.03-.19-1.43-.55-.6-.55-5.22-3.41-7.51-5.42,2.07,2.58,7.06,8.01,8.75,10.11l3.5-2.28Z"/>
          <path class="cls-4" d="M265.95,253.76c-1.57,2.28-3.1,4.59-4.4,7.04l2.39-2.73,5.28-6.04c1.7-1.89,3.44-3.26,5.14-4.59l.71-.56c.85-.72,2.74-2.34,2.65-3.56,0,0,0,0,0-.01-.04-.19-.24-.72-.63-1.47l-.23-.29h.02c-.27-.33-.6-.76-1.05-1.35-1.26-1.63-3.17-4.12-5.19-6.75-2.22-2.89-4.58-5.95-6.34-8.24-.3.12-1.49-1.1-1.85-.96.26.15.2,2.23.39,2.48l.49.67c.42.55,4.29,4.63,7.38,8.84,2.37,3.23,4.29,5.91,4.5,6.19.41.53.54,1.21.37,1.86-6.62,5.42-5.67,3.72-9.63,9.48Z"/>
        </g>
        <g id="White_L" data-name="White L">
          <path class="cls-4" d="M134.57,174.38c-.36-.01-.72-.02-1.09-.02-7.56,0-15.35,2.2-22.44,5.19,6.62-1.75,13.53-3.37,20.51-4.65,0,0,.02,0,.03,0l2.99-.52Z"/>
          <path class="cls-4" d="M81.19,218.79c.44,0,.89,0,1.33.02l.31-.72c.23-.54,1.02-2.4,1.88-4.42-2.24,2.07-4.72,3.86-7.39,5.32,1.27-.13,2.56-.2,3.87-.2Z"/>
          <path class="cls-4" d="M175.57,270.43s-5.61-.6-5.87-.63c-.02,0-.03,0-.05,0-2.35-.21-4.78-.32-7.24-.32-7.05,0-14.44.84-23.26,2.65l-.41-.47-1.83-2.11c-1.53-1.77-4.21-4.86-6.98-8.04-3.15-3.62-6.4-7.37-8.22-9.47l-1.61-1.85c-.4-.47-.99-.73-1.61-.73q-.42,0-1.94.63l-1.13.47c-8.46,3.49-21.66,8.97-31.12,12.93.19-1.9.42-4.07.65-6.28.55-5.38,1.13-10.95,1.41-13.88l.4-3.95c.07-.65-.17-1.29-.63-1.74-.4-.39-.93-.6-1.48-.6-.09,0-.19,0-.28.02l-14.23,1.88-14.64,1.93,3-.74c9.08-3.57,18.86-6.94,28.89-7.44.43-.02.88-.04,1.31-.04h.25s.41,0,.41,0c.11,3.29.26,9.12.39,13.88.06,2.28.12,4.32.16,5.7h0s.02.91.02.91c.03.97.08,2.99,2.15,2.99.3,0,.59-.06.86-.18l1.67-.74,26.4-11.68.53-.23.29.22.72.54c4.11,3.1,14.15,10.69,18.68,14.17l.44.33c.37.28.83.43,1.29.43.17,0,.33-.02.5-.06l.54-.13,15.57-3.73,1.66-.4c.68-.16,1.23-.64,1.48-1.29.25-.65.17-1.38-.21-1.95-.68-1.02-1.92-2.88-3.18-4.78-1.44-2.16-2.92-4.38-3.69-5.53l-.45-.67.85-1.26,9.59-14.16.07-.1c.04-.06.09-.13.13-.19,8.4-1.7,10.79-2.13,17.34-2.13-5.41,1.17-10.59,2.32-11.67,3.07l-.57.96-7.88,13.27c-.35.58-.62,1.04-.81,1.41h-.02c-.24.39-.35.7-.33,1.05-.03.35.08.67.31,1.08h.02c.17.37.42.83.73,1.42l12.64,25.61Z"/>
          <path class="cls-4" d="M123.8,207.52c-1.19,1.78-2.48,3.51-3.9,5.16l43.03-12.33.49-.14c.19-.05.39-.08.59-.08s.41.03.61.09c8.98,2.7,17.63,6.42,25.72,11.05,2.68,1.5,5.54,3.35,8.36,5.2-5.58-5-11.15-9.68-16.43-14.05-4.96-4.06-9.34-7.52-13.34-10.55-5.34,1.33-10.8,3.61-16.09,5.81-1.09.46-2.18.91-3.26,1.35-4.86,2.01-10.56,4.58-16.07,7.08-2.19.99-4.29,1.94-6.29,2.84-1.15.51-2.5.09-3.15-.99l-.27-.44Z"/>
          <path class="cls-4" d="M131.51,193.57c3.28-5.28,6.33-11.36,9.25-18.43-1.11-.25-2.26-.44-3.44-.57.18.13.33.29.47.47.4.56.51,1.27.29,1.92-2.04,6.05-4.24,11.62-6.56,16.61Z"/>
        </g>
      </g>
      <g id="Helmet_in_Front" data-name="Helmet in Front">
        <path d="M165.17,310.74c-.17,0-.35-.02-.52-.06-16.64-3.57-38.35-28.4-39.27-29.45-.91-1.04-.79-2.62.25-3.53,1.04-.91,2.62-.79,3.53.25.21.24,20.59,23.55,35.53,27.6,2.52-1.89,11.04-9.37,18.58-28.96l-17.98-33.43c-.41-.77-.4-1.7.05-2.45l7.81-13.31c.31-.53.81-.93,1.4-1.12.37-.12,9.27-2.92,20.58-2.43,14.08.6,25.6,6.07,33.51,15.87,5.18-4.69,16.93-12.62,24.92-14.35,3.93-.85,6.99-.32,9.08,1.58.13.12.24.24.34.38l9.11,12.59c.38.52.54,1.17.45,1.81-.13.95-1.69,7.04-19.46,34.87.62,1.38,1.27,2.9,1.95,4.49,2.96,6.92,6.93,16.18,11.28,20.18l20.21-12.8c1.17-.74,2.71-.39,3.45.77.74,1.17.39,2.71-.77,3.45l-21.7,13.74c-.83.53-1.9.52-2.72-.03-6.07-4.04-10.65-14.75-14.33-23.35-.88-2.05-1.71-3.99-2.46-5.6-.36-.78-.3-1.69.16-2.41,14.41-22.49,18.2-30.73,19.16-33.22l-8.19-11.31c-.66-.48-1.7-.65-3.12-.5-8.74.93-23.79,12.62-25.39,14.71-.39.73-1.12,1.22-1.95,1.31-.91.09-1.78-.31-2.3-1.05-7.06-10.09-17.59-15.52-31.29-16.15-8.49-.39-15.67,1.28-18.11,1.94l-6.59,11.24,17.85,33.2c.34.64.39,1.39.14,2.06-9.76,26.02-21.45,32.85-21.95,33.13-.38.21-.8.32-1.23.32ZM230.56,244.79h0ZM230.69,244.56s0,0,0,0c0,0,0,0,0,0Z"/>
      </g>
    </g>
  </g>
</svg>