<?xml version="1.0" encoding="UTF-8"?>
<svg id="bone" xmlns="http://www.w3.org/2000/svg" viewBox="0 0 140 140">
  <defs>
    <style>
      .cls-1 {
        fill: #fff;
      }

      .cls-2 {
        fill: #a5a8c1;
      }

      .cls-3 {
        fill: #d6d8e9;
      }
    </style>
  </defs>
  <g>
    <path class="cls-3" d="M48.27,126.61c-3.26,0-6.7-1.75-9.18-4.68-2.29-2.7-3.4-5.93-2.95-8.64.62-3.69.27-6.25-1.08-7.85-1.39-1.64-3.97-2.44-7.89-2.44-.48,0-.97.01-1.48.04-.18,0-.34.01-.5.01-4.31,0-8.17-2.28-10.3-6.11-2.19-3.92-2.17-8.6.06-12.21,4-6.47,10.92-6.79,15.97-7.03,1.84-.08,3.57-.17,4.68-.53,13.14-4.35,37.34-27.03,41.67-41.64.32-1.09.4-2.75.47-4.5.23-5.12.53-12.13,7.1-16.19,1.79-1.1,3.88-1.68,6.04-1.68,3.41,0,6.71,1.4,9.05,3.83,2.2,2.29,3.35,5.34,3.22,8.58-.2,4.37.48,7.4,2.03,9.02,1.11,1.17,2.77,1.73,5.06,1.73h0c.94,0,2.01-.1,3.16-.29.4-.07.82-.1,1.24-.1,4.25,0,9.01,3.34,11.06,7.77,1.78,3.83,1.26,7.71-1.46,10.93-5.66,6.67-12.77,7.08-17.96,7.37-1.72.1-3.2.18-4.35.46-11.66,2.83-36.33,26.03-39.34,39.33-.26,1.13-.33,2.57-.43,4.23-.29,5.23-.68,12.4-7.41,18.11-1.95,1.65-4.13,2.49-6.48,2.49Z"/>
    <path d="M90.88,14.64c5.53,0,11.03,4.29,10.78,10.86-.4,8.46,2.33,12.32,8.59,12.32,1.04,0,2.18-.11,3.41-.32.32-.05.65-.08.99-.08,6.28,0,14.55,9.02,8.45,16.23-7.05,8.31-16.49,6.12-21.53,7.34-12.43,3.02-37.37,26.83-40.45,40.45-1.14,5.06.97,14.48-7.34,21.53-1.78,1.5-3.67,2.13-5.51,2.13-6.01,0-11.45-6.72-10.65-11.57,1.39-8.22-1.76-12.04-10.45-12.04-.5,0-1.01.01-1.55.04-.15,0-.29,0-.43,0-8.45,0-12.93-9.6-8.97-16.04,5.04-8.14,15.31-5.42,19.85-6.92,14.19-4.7,38.28-27.95,42.63-42.63,1.36-4.58-1.22-14.81,6.92-19.85,1.62-1,3.44-1.46,5.25-1.46M90.88,11.64c-2.44,0-4.8.66-6.82,1.9-7.25,4.48-7.59,12.26-7.81,17.41-.07,1.66-.14,3.23-.41,4.14-3.92,13.23-26.74,36.01-40.7,40.64-.91.3-2.55.38-4.28.46-5.08.24-12.76.59-17.18,7.73-2.51,4.09-2.55,9.35-.1,13.74,2.41,4.31,6.75,6.88,11.61,6.88.18,0,.37,0,.55-.01.51-.02.98-.04,1.43-.04,3.4,0,5.67.64,6.74,1.91,1.03,1.22,1.29,3.45.75,6.63-.52,3.14.71,6.83,3.28,9.86,2.81,3.31,6.57,5.21,10.33,5.21,2.67,0,5.24-.98,7.44-2.84,7.23-6.13,7.66-13.98,7.94-19.17.09-1.59.16-2.97.39-3.98,2.86-12.61,27.18-35.51,38.23-38.2,1.03-.25,2.44-.33,4.09-.42,5.15-.29,12.94-.73,19.02-7.9,3.08-3.64,3.69-8.21,1.68-12.54-2.29-4.92-7.63-8.64-12.42-8.64-.5,0-1,.04-1.48.12-1.08.18-2.06.27-2.92.27-2.77,0-3.68-.96-3.98-1.27-1.24-1.3-1.8-4.03-1.62-7.91.14-3.68-1.15-7.12-3.64-9.71-2.62-2.73-6.32-4.29-10.13-4.29h0Z"/>
  </g>
  <path class="cls-2" d="M123.1,53.63c-7.02,8.32-16.51,6.16-21.5,7.39-12.44,3.02-37.39,26.79-40.47,40.41-1.17,5.05.92,14.47-7.33,21.56-7.64,6.41-17.25-3.14-16.2-9.42,1.48-8.68-2.09-12.5-12.01-12.01-8.68.31-13.11-9.3-9.36-16.08,2.79-5.05,9.52-5.84,9.52-5.84-1.09.97-3.5,14.26,12.23,14.89,3.97.16-.08,14.67,11.91,11.91,5.8-3.1,1.6-6.72,7.69-16.25,1.34-2.09,12.01-20.62,29.82-30.18,3.4-1.84,9-4.13,12.9-4.87,6.26-1.18,20.93-3.77,16.4-17.4,5.85,1.6,11.83,9.49,6.41,15.89Z"/>
  <path class="cls-1" d="M98.34,18.65c0,9.67-7.82,17.55-17.55,17.55-.74,0-1.48-.06-2.16-.12q.06-.06.06-.12c1.35-4.56-1.23-14.84,6.96-19.83,4-2.53,9.3-1.66,12.63,1.36.06.37.06.8.06,1.17Z"/>
</svg>